# xmcd
#
# Track frame offsets: 
#        182
#        19605
#        36057
#        56175
#        70570
#        90290
#        110807
#        130052
#        147240
#        163045
#        177732
#        197750
#
# Disc length: 2901 seconds
#
# Revision: 7
# Processed by: cddbd v1.5.2PL0 Copyright (c) Steve Scherf et al.
# Submitted via: ExactAudioCopyFreeDBPlugin 1.0
#
DISCID=a50b530c
DTITLE=Rebekah - Remember To Breath
DYEAR=1998
DGENRE=R&B
TTITLE0=Hey Genius
TTITLE1=Sin So Well
TTITLE2=Remember To Breathe
TTITLE3=Love Song
TTITLE4=I Wish I Could Believe Me
TTITLE5=Pining
TTITLE6=Keep It A Secret
TTITLE7=Be Your Own
TTITLE8=Love Trap
TTITLE9=Cardboard Boxes
TTITLE10=To Be Special
TTITLE11=Little Black Girl
EXTD=ID3G:  20
EXTT0=
EXTT1=
EXTT2=
EXTT3=
EXTT4=
EXTT5=
EXTT6=
EXTT7=
EXTT8=
EXTT9=
EXTT10=
EXTT11=
PLAYORDER=
